<svg width="40" height="40" viewBox="0 0 40 40" fill="none" xmlns="http://www.w3.org/2000/svg">
<mask id="mask0_2025_497" style="mask-type:alpha" maskUnits="userSpaceOnUse" x="0" y="0" width="40" height="40">
<rect width="40" height="40" fill="#8E98D1"/>
</mask>
<g mask="url(#mask0_2025_497)">
<path d="M7.08331 11.6667C6.72915 11.6667 6.43234 11.5468 6.1929 11.3071C5.95317 11.0674 5.83331 10.7704 5.83331 10.4162C5.83331 10.0618 5.95317 9.76499 6.1929 9.52582C6.43234 9.28638 6.72915 9.16666 7.08331 9.16666H32.9166C33.2708 9.16666 33.5676 9.28652 33.8071 9.52624C34.0468 9.76596 34.1666 10.0629 34.1666 10.4171C34.1666 10.7715 34.0468 11.0683 33.8071 11.3075C33.5676 11.5469 33.2708 11.6667 32.9166 11.6667H7.08331ZM7.08331 30.8333C6.72915 30.8333 6.43234 30.7135 6.1929 30.4737C5.95317 30.234 5.83331 29.9371 5.83331 29.5829C5.83331 29.2285 5.95317 28.9317 6.1929 28.6925C6.43234 28.453 6.72915 28.3333 7.08331 28.3333H32.9166C33.2708 28.3333 33.5676 28.4532 33.8071 28.6929C34.0468 28.9326 34.1666 29.2296 34.1666 29.5837C34.1666 29.9382 34.0468 30.235 33.8071 30.4742C33.5676 30.7136 33.2708 30.8333 32.9166 30.8333H7.08331ZM7.08331 21.25C6.72915 21.25 6.43234 21.1301 6.1929 20.8904C5.95317 20.6507 5.83331 20.3537 5.83331 19.9996C5.83331 19.6451 5.95317 19.3483 6.1929 19.1092C6.43234 18.8697 6.72915 18.75 7.08331 18.75H32.9166C33.2708 18.75 33.5676 18.8699 33.8071 19.1096C34.0468 19.3493 34.1666 19.6462 34.1666 20.0004C34.1666 20.3549 34.0468 20.6517 33.8071 20.8908C33.5676 21.1303 33.2708 21.25 32.9166 21.25H7.08331Z" fill="#5A67BA"/>
</g>
</svg>
