<svg width="40" height="40" viewBox="0 0 40 40" fill="none" xmlns="http://www.w3.org/2000/svg">
<mask id="mask0_2025_498" style="mask-type:alpha" maskUnits="userSpaceOnUse" x="0" y="0" width="40" height="40">
<rect width="40" height="40" fill="#8E98D1"/>
</mask>
<g mask="url(#mask0_2025_498)">
<path d="M24.4871 30C23.4165 30 22.5079 29.6267 21.7613 28.88C21.0146 28.1331 20.6413 27.2243 20.6413 26.1537C20.6413 25.0832 21.0146 24.1746 21.7613 23.4279C22.5079 22.6812 23.4165 22.3079 24.4871 22.3079C25.5576 22.3079 26.4664 22.6812 27.2133 23.4279C27.96 24.1746 28.3333 25.0832 28.3333 26.1537C28.3333 27.2243 27.96 28.1331 27.2133 28.88C26.4664 29.6267 25.5576 30 24.4871 30ZM8.84626 35.8333C8.00432 35.8333 7.29168 35.5417 6.70834 34.9583C6.12501 34.375 5.83334 33.6624 5.83334 32.8204V10.5129C5.83334 9.67097 6.12501 8.95833 6.70834 8.37499C7.29168 7.79166 8.00432 7.49999 8.84626 7.49999H11.1538V5.25625C11.1538 4.89097 11.2761 4.58597 11.5208 4.34125C11.7656 4.0968 12.0706 3.97458 12.4358 3.97458C12.8014 3.97458 13.1064 4.0968 13.3508 4.34125C13.5956 4.58597 13.7179 4.89097 13.7179 5.25625V7.49999H26.3463V5.22458C26.3463 4.86986 26.4658 4.57277 26.705 4.33333C26.9445 4.09416 27.2415 3.97458 27.5963 3.97458C27.951 3.97458 28.2479 4.09416 28.4871 4.33333C28.7265 4.57277 28.8463 4.86986 28.8463 5.22458V7.49999H31.1538C31.9957 7.49999 32.7083 7.79166 33.2917 8.37499C33.875 8.95833 34.1667 9.67097 34.1667 10.5129V32.8204C34.1667 33.6624 33.875 34.375 33.2917 34.9583C32.7083 35.5417 31.9957 35.8333 31.1538 35.8333H8.84626ZM8.84626 33.3333H31.1538C31.2821 33.3333 31.3996 33.2799 31.5063 33.1729C31.6132 33.0662 31.6667 32.9487 31.6667 32.8204V17.1796H8.33334V32.8204C8.33334 32.9487 8.38682 33.0662 8.49376 33.1729C8.60043 33.2799 8.71793 33.3333 8.84626 33.3333ZM8.33334 14.6796H31.6667V10.5129C31.6667 10.3846 31.6132 10.2671 31.5063 10.1604C31.3996 10.0535 31.2821 9.99999 31.1538 9.99999H8.84626C8.71793 9.99999 8.60043 10.0535 8.49376 10.1604C8.38682 10.2671 8.33334 10.3846 8.33334 10.5129V14.6796Z" fill="#A6ABC8"/>
</g>
</svg>
