<svg width="40" height="40" viewBox="0 0 40 40" fill="none" xmlns="http://www.w3.org/2000/svg">
<mask id="mask0_2025_501" style="mask-type:alpha" maskUnits="userSpaceOnUse" x="0" y="0" width="40" height="40">
<rect width="40" height="40" fill="#D9D9D9"/>
</mask>
<g mask="url(#mask0_2025_501)">
<path d="M10 31.6667H15.5771V23.2692C15.5771 22.8425 15.7214 22.4847 16.01 22.1958C16.2989 21.9072 16.6567 21.7629 17.0833 21.7629H22.9167C23.3433 21.7629 23.7011 21.9072 23.99 22.1958C24.2786 22.4847 24.4229 22.8425 24.4229 23.2692V31.6667H30V16.9229C30 16.8376 29.9813 16.7603 29.9438 16.6908C29.9065 16.6214 29.8558 16.5599 29.7917 16.5062L20.3046 9.37499C20.219 9.30027 20.1175 9.26291 20 9.26291C19.8825 9.26291 19.781 9.30027 19.6954 9.37499L10.2083 16.5062C10.1442 16.5599 10.0935 16.6214 10.0563 16.6908C10.0188 16.7603 10 16.8376 10 16.9229V31.6667ZM7.5 31.6667V16.9229C7.5 16.446 7.60667 15.9942 7.82 15.5675C8.03361 15.1405 8.32861 14.789 8.705 14.5129L18.1925 7.36541C18.7189 6.96374 19.3206 6.76291 19.9975 6.76291C20.6744 6.76291 21.2778 6.96374 21.8075 7.36541L31.295 14.5129C31.6714 14.789 31.9664 15.1405 32.18 15.5675C32.3933 15.9942 32.5 16.446 32.5 16.9229V31.6667C32.5 32.3483 32.2537 32.9354 31.7612 33.4279C31.2687 33.9204 30.6817 34.1667 30 34.1667H23.4296C23.0026 34.1667 22.6449 34.0222 22.3562 33.7333C22.0674 33.4447 21.9229 33.0869 21.9229 32.66V24.2629H18.0771V32.66C18.0771 33.0869 17.9326 33.4447 17.6438 33.7333C17.3551 34.0222 16.9974 34.1667 16.5704 34.1667H10C9.31833 34.1667 8.73125 33.9204 8.23875 33.4279C7.74625 32.9354 7.5 32.3483 7.5 31.6667Z" fill="#A6ABC8"/>
</g>
</svg>
