<svg width="40" height="40" viewBox="0 0 40 40" fill="none" xmlns="http://www.w3.org/2000/svg">
<mask id="mask0_2025_603" style="mask-type:alpha" maskUnits="userSpaceOnUse" x="0" y="0" width="40" height="40">
<rect width="40" height="40" fill="#D9D9D9"/>
</mask>
<g mask="url(#mask0_2025_603)">
<path d="M8.75 31.4742C8.39583 31.4742 8.09903 31.3544 7.85958 31.115C7.61986 30.8753 7.5 30.5782 7.5 30.2237C7.5 29.8696 7.61986 29.5728 7.85958 29.3333C8.09903 29.0942 8.39583 28.9746 8.75 28.9746H10.5129V16.5383C10.5129 14.2969 11.2047 12.3151 12.5883 10.5929C13.9717 8.87069 15.7478 7.76916 17.9167 7.28833V6.25C17.9167 5.67139 18.119 5.17944 18.5238 4.77416C18.9285 4.36916 19.4199 4.16666 19.9979 4.16666C20.5763 4.16666 21.0683 4.36916 21.4742 4.77416C21.8803 5.17944 22.0833 5.67139 22.0833 6.25V7.28833C24.2522 7.76916 26.0283 8.87069 27.4117 10.5929C28.7953 12.3151 29.4871 14.2969 29.4871 16.5383V28.9746H31.25C31.6042 28.9746 31.901 29.0943 32.1404 29.3337C32.3801 29.5735 32.5 29.8706 32.5 30.225C32.5 30.5792 32.3801 30.876 32.1404 31.1154C31.901 31.3546 31.6042 31.4742 31.25 31.4742H8.75ZM19.9971 36.1537C19.1679 36.1537 18.459 35.8587 17.8704 35.2687C17.2815 34.6787 16.9871 33.9694 16.9871 33.1408H23.0129C23.0129 33.9722 22.7176 34.6822 22.1271 35.2708C21.5365 35.8594 20.8265 36.1537 19.9971 36.1537ZM13.0129 28.9746H26.9871V16.5383C26.9871 14.6089 26.305 12.9621 24.9408 11.5979C23.5764 10.2335 21.9294 9.55125 20 9.55125C18.0706 9.55125 16.4236 10.2335 15.0592 11.5979C13.695 12.9621 13.0129 14.6089 13.0129 16.5383V28.9746Z" fill="#A6ABC8"/>
</g>
</svg>
