<svg width="40" height="40" viewBox="0 0 40 40" fill="none" xmlns="http://www.w3.org/2000/svg">
<mask id="mask0_2025_504" style="mask-type:alpha" maskUnits="userSpaceOnUse" x="0" y="0" width="40" height="40">
<rect width="40" height="40" fill="#D9D9D9"/>
</mask>
<g mask="url(#mask0_2025_504)">
<path d="M13.8462 34.1667C13.0176 34.1667 12.3083 33.8717 11.7183 33.2817C11.1283 32.6917 10.8333 31.9824 10.8333 31.1538V27.5H7.66041C6.8318 27.5 6.12249 27.205 5.53249 26.615C4.94249 26.025 4.64749 25.3157 4.64749 24.4871V18.0129C4.64749 16.8324 5.05082 15.8428 5.85749 15.0442C6.66416 14.2456 7.64971 13.8463 8.81416 13.8463H31.1858C32.3664 13.8463 33.356 14.2456 34.1546 15.0442C34.9532 15.8428 35.3525 16.8324 35.3525 18.0129V24.4871C35.3525 25.3157 35.0575 26.025 34.4675 26.615C33.8775 27.205 33.1682 27.5 32.3396 27.5H29.1667V31.1538C29.1667 31.9824 28.8717 32.6917 28.2817 33.2817C27.6917 33.8717 26.9824 34.1667 26.1537 34.1667H13.8462ZM7.66041 25H10.8333C10.8547 24.1903 11.1572 23.4964 11.7408 22.9183C12.3247 22.3403 13.0265 22.0513 13.8462 22.0513H26.1537C26.9735 22.0513 27.6751 22.3403 28.2587 22.9183C28.8426 23.4964 29.1453 24.1903 29.1667 25H32.3396C32.4893 25 32.6122 24.952 32.7083 24.8558C32.8044 24.7597 32.8525 24.6368 32.8525 24.4871V18.0129C32.8525 17.5407 32.6928 17.1449 32.3733 16.8254C32.0539 16.506 31.6581 16.3463 31.1858 16.3463H8.81416C8.34194 16.3463 7.9461 16.506 7.62666 16.8254C7.30721 17.1449 7.14749 17.5407 7.14749 18.0129V24.4871C7.14749 24.6368 7.19555 24.7597 7.29166 24.8558C7.38777 24.952 7.51069 25 7.66041 25ZM26.6667 13.8463V9.35917C26.6667 9.20945 26.6186 9.08653 26.5225 8.99042C26.4264 8.89431 26.3035 8.84625 26.1537 8.84625H13.8462C13.6965 8.84625 13.5736 8.89431 13.4775 8.99042C13.3814 9.08653 13.3333 9.20945 13.3333 9.35917V13.8463H10.8333V9.35917C10.8333 8.53056 11.1283 7.82125 11.7183 7.23125C12.3083 6.64125 13.0176 6.34625 13.8462 6.34625H26.1537C26.9824 6.34625 27.6917 6.64125 28.2817 7.23125C28.8717 7.82125 29.1667 8.53056 29.1667 9.35917V13.8463H26.6667ZM29.6796 20.5129C30.1518 20.5129 30.5476 20.3532 30.8671 20.0338C31.1865 19.7143 31.3462 19.3185 31.3462 18.8463C31.3462 18.374 31.1865 17.9782 30.8671 17.6588C30.5476 17.3393 30.1518 17.1796 29.6796 17.1796C29.2074 17.1796 28.8115 17.3393 28.4921 17.6588C28.1726 17.9782 28.0129 18.374 28.0129 18.8463C28.0129 19.3185 28.1726 19.7143 28.4921 20.0338C28.8115 20.3532 29.2074 20.5129 29.6796 20.5129ZM26.6667 31.1538V25.0642C26.6667 24.9144 26.6186 24.7915 26.5225 24.6954C26.4264 24.5993 26.3035 24.5513 26.1537 24.5513H13.8462C13.6965 24.5513 13.5736 24.5993 13.4775 24.6954C13.3814 24.7915 13.3333 24.9144 13.3333 25.0642V31.1538C13.3333 31.3035 13.3814 31.4264 13.4775 31.5225C13.5736 31.6186 13.6965 31.6667 13.8462 31.6667H26.1537C26.3035 31.6667 26.4264 31.6186 26.5225 31.5225C26.6186 31.4264 26.6667 31.3035 26.6667 31.1538Z" fill="#A6ABC8"/>
</g>
</svg>
