<svg width="40" height="40" viewBox="0 0 40 40" fill="none" xmlns="http://www.w3.org/2000/svg">
<mask id="mask0_2025_606" style="mask-type:alpha" maskUnits="userSpaceOnUse" x="0" y="0" width="40" height="40">
<rect width="40" height="40" fill="#D9D9D9"/>
</mask>
<g mask="url(#mask0_2025_606)">
<path d="M18.1537 35.8333C17.5854 35.8333 17.0946 35.6447 16.6812 35.2675C16.2676 34.8906 16.016 34.4264 15.9262 33.875L15.5192 30.7563C15.0728 30.6068 14.615 30.3975 14.1458 30.1283C13.6769 29.8589 13.2576 29.5704 12.8879 29.2629L9.99999 30.4904C9.47638 30.7212 8.95027 30.7436 8.42166 30.5575C7.89277 30.3717 7.48193 30.0342 7.18916 29.545L5.31082 26.2883C5.01805 25.7992 4.93374 25.2815 5.05791 24.7354C5.1818 24.1896 5.46596 23.7393 5.91041 23.3846L8.40707 21.5096C8.36874 21.2618 8.34152 21.0129 8.32541 20.7629C8.3093 20.5129 8.30124 20.2639 8.30124 20.0158C8.30124 19.7789 8.3093 19.5381 8.32541 19.2933C8.34152 19.0486 8.36874 18.781 8.40707 18.4904L5.91041 16.6154C5.46596 16.2607 5.18443 15.8076 5.06582 15.2563C4.94721 14.7051 5.0343 14.1849 5.32707 13.6954L7.18916 10.4871C7.48193 10.0085 7.89277 9.67361 8.42166 9.4825C8.95027 9.29111 9.47638 9.31083 9.99999 9.54167L12.8717 10.7533C13.2736 10.435 13.7026 10.1439 14.1587 9.88C14.6149 9.61611 15.063 9.40403 15.5033 9.24375L15.9262 6.125C16.016 5.57361 16.2676 5.10944 16.6812 4.7325C17.0946 4.35528 17.5854 4.16667 18.1537 4.16667H21.8462C22.4146 4.16667 22.9054 4.35528 23.3187 4.7325C23.7324 5.10944 23.984 5.57361 24.0737 6.125L24.4808 9.25958C24.9808 9.44125 25.4332 9.65333 25.8379 9.89583C26.2429 10.1383 26.6517 10.4242 27.0642 10.7533L30.0162 9.54167C30.5396 9.31083 31.0657 9.29111 31.5946 9.4825C32.1235 9.67361 32.5342 10.0085 32.8267 10.4871L34.6892 13.7117C34.9819 14.2008 35.0662 14.7185 34.9421 15.2646C34.8182 15.8104 34.534 16.2607 34.0896 16.6154L31.5287 18.5383C31.5885 18.8075 31.6211 19.0592 31.6267 19.2933C31.6319 19.5272 31.6346 19.7628 31.6346 20C31.6346 20.2264 31.6292 20.4567 31.6183 20.6908C31.6078 20.9247 31.5694 21.1924 31.5033 21.4937L34.0158 23.3846C34.4603 23.7393 34.7472 24.1896 34.8767 24.7354C35.0058 25.2815 34.924 25.7992 34.6312 26.2883L32.7433 29.5287C32.4508 30.0182 32.0375 30.3558 31.5033 30.5417C30.9692 30.7275 30.4403 30.705 29.9167 30.4742L27.0642 29.2467C26.6517 29.5758 26.2307 29.8669 25.8012 30.12C25.3718 30.3733 24.9317 30.5801 24.4808 30.7404L24.0737 33.875C23.984 34.4264 23.7324 34.8906 23.3187 35.2675C22.9054 35.6447 22.4146 35.8333 21.8462 35.8333H18.1537ZM18.3333 33.3333H21.6092L22.2083 28.8687C23.0589 28.6465 23.8361 28.3308 24.54 27.9217C25.2442 27.5122 25.9232 26.986 26.5771 26.3429L30.7179 28.0833L32.3592 25.25L28.7437 22.5258C28.8826 22.0942 28.9771 21.671 29.0271 21.2562C29.0774 20.8418 29.1025 20.4231 29.1025 20C29.1025 19.5661 29.0774 19.1474 29.0271 18.7437C28.9771 18.3399 28.8826 17.9274 28.7437 17.5063L32.3908 14.75L30.75 11.9167L26.5608 13.6825C26.003 13.0864 25.3349 12.5597 24.5562 12.1025C23.7773 11.6453 22.9894 11.3215 22.1925 11.1312L21.6667 6.66667H18.3592L17.8075 11.1154C16.9572 11.3162 16.1721 11.6239 15.4521 12.0383C14.7318 12.4531 14.0447 12.9872 13.3908 13.6408L9.24999 11.9167L7.60916 14.75L11.2083 17.4325C11.0694 17.8281 10.9722 18.2394 10.9167 18.6667C10.8611 19.0939 10.8333 19.5436 10.8333 20.0158C10.8333 20.4497 10.8611 20.875 10.9167 21.2917C10.9722 21.7083 11.0642 22.1197 11.1925 22.5258L7.60916 25.25L9.24999 28.0833L13.375 26.3333C14.0075 26.9828 14.6837 27.5149 15.4037 27.9296C16.124 28.344 16.92 28.6624 17.7917 28.8846L18.3333 33.3333ZM20.0192 25C21.4058 25 22.5858 24.5133 23.5592 23.54C24.5325 22.5667 25.0192 21.3867 25.0192 20C25.0192 18.6133 24.5325 17.4333 23.5592 16.46C22.5858 15.4867 21.4058 15 20.0192 15C18.6153 15 17.431 15.4867 16.4662 16.46C15.5015 17.4333 15.0192 18.6133 15.0192 20C15.0192 21.3867 15.5015 22.5667 16.4662 23.54C17.431 24.5133 18.6153 25 20.0192 25Z" fill="#A6ABC8"/>
</g>
</svg>
